<svg width="13" height="11" viewBox="0 0 13 11" fill="none" xmlns="http://www.w3.org/2000/svg">
<g clip-path="url(#clip0_33438_1095)">
<path d="M0.899907 6.90704C1.3308 6.80636 1.75289 6.70568 2.17792 6.61363C2.42415 6.56185 2.65571 6.71143 2.70554 6.9358C2.75537 7.16593 2.61174 7.3903 2.36845 7.44783C2.00498 7.53413 1.64151 7.61467 1.27804 7.69234C1.20769 7.70672 1.13734 7.7096 1.04354 7.71823C1.09923 7.89082 1.14906 8.07205 1.21355 8.24752C1.48322 8.97529 1.89066 9.61964 2.43587 10.1806C2.50622 10.2525 2.5795 10.333 2.61761 10.4222C2.69968 10.6063 2.61761 10.822 2.44173 10.9314C2.27172 11.0378 2.04895 11.0119 1.89652 10.8652C1.44512 10.4222 1.06699 9.92168 0.76507 9.36938C0.196412 8.31943 -0.0673987 7.19182 0.0146757 6.00092C0.14365 4.10238 0.976119 2.54904 2.49156 1.35814C3.39731 0.647623 4.43204 0.210385 5.57815 0.0608031C8.89337 -0.373559 11.9067 1.57388 12.7626 4.74961C13.34 6.8869 12.8476 8.82283 11.4113 10.5258C11.3146 10.6408 11.2061 10.7501 11.1006 10.8566C10.9188 11.0349 10.658 11.0464 10.4821 10.8853C10.2974 10.7185 10.2857 10.4567 10.4674 10.2697C10.8954 9.83539 11.2677 9.35787 11.5285 8.80845C11.6927 8.45751 11.8246 8.09219 11.9624 7.74987C11.4787 7.64056 11.0302 7.54564 10.5847 7.43345C10.3561 7.37592 10.23 7.14292 10.2857 6.9243C10.3443 6.7028 10.5671 6.56185 10.8075 6.61363C11.2325 6.7028 11.6546 6.80636 12.0884 6.90704C12.2086 5.5119 11.8568 4.24334 11.0126 3.08983C10.7254 3.31708 10.4499 3.5357 10.1743 3.75432C10.0688 3.83774 9.94861 3.88952 9.81377 3.86363C9.62911 3.82911 9.50306 3.72555 9.45616 3.54433C9.4122 3.37461 9.46496 3.22791 9.59979 3.11572C9.83136 2.92587 10.0688 2.74177 10.3004 2.55479C10.3414 2.52315 10.3824 2.48863 10.4381 2.4426C9.45323 1.50772 8.29247 0.989935 6.92358 0.866243C6.92358 1.2028 6.92358 1.52498 6.92358 1.84715C6.92358 2.0744 6.74771 2.24987 6.51907 2.26426C6.27285 2.27864 6.0618 2.09166 6.0618 1.84715C6.0618 1.52785 6.0618 1.21143 6.0618 0.869119C4.69878 0.987058 3.53801 1.50772 2.54726 2.4426C2.69675 2.56342 2.83745 2.6756 2.98108 2.78779C3.11298 2.89422 3.25075 2.99778 3.37973 3.10709C3.57905 3.27681 3.6025 3.53282 3.44128 3.7198C3.28593 3.90102 3.02798 3.92116 2.82572 3.76295C2.54433 3.54433 2.26586 3.31996 1.97567 3.08983C1.13147 4.24334 0.779726 5.5119 0.902838 6.90704H0.899907Z" fill="#0F172A"/>
<path d="M6.14409 8.68999C5.39663 8.68136 4.77521 8.22399 4.58468 7.57101C4.38829 6.89789 4.6433 6.21039 5.25007 5.82781C5.85976 5.44235 6.53101 5.16907 7.19347 4.88429C7.51005 4.74909 7.82955 4.61965 8.15198 4.49308C8.322 4.42404 8.48028 4.45856 8.61512 4.58225C8.74996 4.70594 8.78513 4.86703 8.72651 5.031C8.37476 5.98314 8.01715 6.93529 7.53056 7.83278C7.28727 8.28152 6.91501 8.56342 6.4079 8.66123C6.31117 8.67849 6.21151 8.68424 6.14995 8.68999H6.14409ZM7.53643 5.69548C7.52177 5.68685 7.51591 5.68398 7.51298 5.68398C6.89449 5.94287 6.27013 6.19888 5.70441 6.55845C5.32921 6.79721 5.28231 7.30061 5.59009 7.61703C5.91253 7.94784 6.48118 7.90757 6.69809 7.50197C6.97363 6.99282 7.1964 6.45777 7.4397 5.93424C7.47487 5.85657 7.50418 5.77315 7.5335 5.69548H7.53643Z" fill="#0F172A"/>
</g>
<defs>
<clipPath id="clip0_33438_1095">
<rect width="13" height="11" fill="white"/>
</clipPath>
</defs>
</svg>
