<svg width="16" height="14" viewBox="0 0 16 14" fill="none" xmlns="http://www.w3.org/2000/svg">
<path d="M14 2.50165V12.2275C13.9056 12.4299 13.7466 12.5 13.5147 12.5C11.5305 12.4948 9.54621 12.4974 7.56195 12.4974C6.27056 12.4974 4.98188 12.4974 3.69049 12.4974C3.44246 12.4974 3.28609 12.3495 3.28609 12.1108C3.28609 11.9551 3.28609 11.802 3.28609 11.6463C3.28609 11.4439 3.28609 11.2414 3.28609 11.0313C3.22678 11.0313 3.18095 11.0313 3.13512 11.0313C2.56087 11.0313 1.98392 11.0313 1.40967 11.0313C1.22365 11.0313 1.09155 10.9508 1.02954 10.8003C0.967531 10.6524 1.00258 10.4967 1.14007 10.3799C1.62266 9.96992 1.97853 9.4665 2.27509 8.92416C2.98144 7.62149 3.2807 6.22541 3.28879 4.76445C3.29418 4.05084 3.28879 3.33982 3.28879 2.62621C3.28879 2.37969 3.44246 2.23437 3.69858 2.23437C4.28361 2.23437 4.86595 2.23437 5.45098 2.23437C5.49681 2.23437 5.54264 2.23437 5.59926 2.23437C5.59926 2.10981 5.59926 1.99564 5.59926 1.88405C5.59926 1.6557 5.75832 1.5 5.98209 1.5C6.19777 1.5 6.35684 1.65829 6.35953 1.87627C6.35953 1.99304 6.35953 2.10981 6.35953 2.2214H8.26291C8.26291 2.09684 8.26291 1.98266 8.26291 1.87108C8.26561 1.6557 8.42737 1.5 8.64574 1.5C8.86142 1.5 9.02318 1.65829 9.02588 1.87627C9.02588 1.99304 9.02588 2.10981 9.02588 2.22659H10.9562C10.9562 2.10462 10.9562 1.99045 10.9562 1.87627C10.9562 1.65829 11.118 1.5 11.3337 1.5C11.552 1.5 11.7111 1.6557 11.7138 1.87367C11.7138 1.99045 11.7138 2.10722 11.7138 2.23437H11.8648C12.4148 2.23437 12.9647 2.24216 13.5147 2.23178C13.7466 2.22659 13.9056 2.29925 14 2.50425V2.50165ZM13.2559 5.17445H4.04636C3.9547 7.04541 3.45324 8.77624 2.26161 10.2943C2.29936 10.2943 2.31823 10.2995 2.3344 10.2995C5.25417 10.2995 8.17394 10.2995 11.091 10.2969C11.1449 10.2969 11.2177 10.2657 11.2501 10.2268C11.4927 9.93878 11.7488 9.66112 11.9591 9.35232C12.528 8.50637 12.8785 7.57219 13.0591 6.58351C13.1427 6.12161 13.1885 5.65192 13.2532 5.17705L13.2559 5.17445ZM13.2289 4.42711V2.97134H11.7138C11.7138 3.08552 11.7138 3.1945 11.7138 3.30349C11.7138 3.53963 11.5574 3.70052 11.3283 3.69792C11.1072 3.69792 10.9535 3.53704 10.9508 3.30868C10.9508 3.1971 10.9508 3.08292 10.9508 2.97393H9.02049C9.02049 3.09849 9.02049 3.21267 9.02049 3.32425C9.01779 3.53963 8.85603 3.69792 8.63765 3.69533C8.42197 3.69533 8.26291 3.53704 8.26021 3.31906C8.26021 3.20229 8.26021 3.08552 8.26021 2.97134H6.35684C6.35684 3.0933 6.35684 3.20748 6.35684 3.32166C6.35414 3.53704 6.19238 3.69533 5.9767 3.69533C5.76102 3.69533 5.59926 3.53704 5.59656 3.32166C5.59656 3.20488 5.59656 3.08811 5.59656 2.97134H4.05445V4.42192H13.2316L13.2289 4.42711ZM13.2343 8.61536C13.1696 8.7477 13.1184 8.8515 13.0672 8.95789C12.7032 9.66112 12.2692 10.3176 11.6787 10.8678C11.5574 10.982 11.4226 11.0339 11.2474 11.0339C8.89917 11.0287 6.55095 11.0313 4.20273 11.0313C4.1542 11.0313 4.10568 11.0313 4.05984 11.0313V11.7578H13.2343V8.61536Z" fill="#0F172A"/>
</svg>
