<svg width="12" height="13" viewBox="0 0 12 13" fill="none" xmlns="http://www.w3.org/2000/svg">
<g clip-path="url(#clip0_33438_1100)">
<path d="M11.9831 12.4433C11.8912 12.0989 11.7963 11.7575 11.7044 11.4131L11.1886 9.52165C10.3556 6.47078 9.52554 3.41992 8.6955 0.369056C8.64807 0.19683 8.56507 0.0861131 8.43167 0.0153773L8.19452 0L8.16487 0.0215283C7.93068 0.175302 7.88029 0.310622 7.95736 0.59049L10.9574 11.5976C11.0552 11.9574 11.153 12.3142 11.2508 12.674C11.3072 12.8801 11.4435 12.9969 11.6214 12.9969C11.6362 12.9969 11.654 12.9969 11.6688 12.9969C11.7785 12.9846 11.8734 12.9262 11.9356 12.8339C12.0038 12.7294 12.0216 12.5879 11.9831 12.4464V12.4433Z" fill="#0F172A"/>
<path d="M3.83755 0.0215283L3.80791 0H3.62708L3.57076 0.0123019C3.43736 0.0799621 3.35139 0.19683 3.30692 0.369056C3.2002 0.775018 3.08755 1.18098 2.97491 1.58694L0.0282659 12.3941C-0.0932757 12.837 0.18538 12.9569 0.271349 12.9846C0.306922 12.9938 0.342495 13 0.375104 13C0.434392 13 0.487752 12.9846 0.541112 12.9539C0.644867 12.8954 0.721942 12.7755 0.766408 12.6156L4.0421 0.59049C4.11918 0.307547 4.07174 0.178377 3.83755 0.0215283Z" fill="#0F172A"/>
<path d="M6.12808 0.0123019L5.92946 0L5.87314 0.0123019C5.70417 0.10149 5.61523 0.246037 5.61523 0.430565V0.575112C5.61523 0.682754 5.61523 0.78732 5.61523 0.894961C5.62116 1.141 5.77531 1.3163 5.99172 1.32553C5.99468 1.32553 6.00061 1.32553 6.00357 1.32553C6.09547 1.32553 6.1844 1.28862 6.25259 1.22404C6.33559 1.14407 6.38302 1.02721 6.38599 0.898037C6.38599 0.833452 6.38599 0.768867 6.38599 0.704282C6.38599 0.636622 6.38599 0.568962 6.38599 0.501301C6.39488 0.270641 6.30891 0.104566 6.12512 0.0123019H6.12808Z" fill="#0F172A"/>
<path d="M6.12808 10.1061C6.0095 10.0631 5.885 10.0785 5.78717 10.1461C5.67749 10.2261 5.61523 10.3645 5.61523 10.5244C5.61523 10.7581 5.61523 10.995 5.61523 11.2287V11.5301V11.8284C5.61523 12.0683 5.61523 12.3082 5.61523 12.5511C5.61523 12.8126 5.76938 12.9879 5.99468 12.9909H6.00061C6.1014 12.9909 6.19626 12.954 6.26444 12.8833C6.34152 12.8033 6.38599 12.6895 6.38599 12.5573C6.38599 11.8745 6.38599 11.1918 6.38599 10.506C6.38599 10.306 6.29409 10.1615 6.12808 10.1V10.1061Z" fill="#0F172A"/>
<path d="M6.38599 6.27412C6.38599 6.01885 6.22591 5.8374 6.00061 5.8374C5.77531 5.8374 5.62116 6.0127 5.61523 6.27104C5.61523 6.3264 5.61523 6.38176 5.61523 6.44019V6.51093V7.01223C5.61523 7.4428 5.61523 7.87029 5.61523 8.30085C5.61523 8.4454 5.6597 8.56534 5.7427 8.6453C5.81089 8.71296 5.89982 8.74987 6.00061 8.74987C6.00654 8.74987 6.01247 8.74987 6.0184 8.74987C6.24073 8.74064 6.38598 8.56534 6.38895 8.30085C6.38895 8.07019 6.38895 7.83953 6.38895 7.60887V7.30748V7.00608C6.38895 6.76312 6.38895 6.52016 6.38895 6.27719L6.38599 6.27412Z" fill="#0F172A"/>
<path d="M5.6153 4.08112C5.61827 4.32716 5.77835 4.50554 5.99475 4.51169H6.00068C6.09851 4.51169 6.1904 4.47171 6.25858 4.40097C6.33862 4.32101 6.38309 4.21029 6.38309 4.08727C6.38605 3.57367 6.38605 3.06007 6.38309 2.54646C6.38309 2.35886 6.29119 2.21431 6.13111 2.1528C6.01254 2.10667 5.88803 2.11897 5.78724 2.18971C5.67756 2.2666 5.61234 2.40499 5.60938 2.56492C5.60938 2.74022 5.60938 2.91859 5.60938 3.0939V3.31225V3.53984C5.60938 3.72129 5.60938 3.90274 5.60938 4.0842L5.6153 4.08112Z" fill="#0F172A"/>
</g>
<defs>
<clipPath id="clip0_33438_1100">
<rect width="12" height="13" fill="white"/>
</clipPath>
</defs>
</svg>
