<svg width="18" height="11" viewBox="0 0 18 11" fill="none" xmlns="http://www.w3.org/2000/svg">
<path d="M1.7167 6.77367H0.870556C0.870556 6.84475 0.870556 6.91261 0.870556 6.98369C0.870556 7.5782 0.870556 8.16948 0.870556 8.76399C0.870556 8.84799 0.863997 8.93846 0.83448 9.01601C0.772168 9.19371 0.637703 9.29387 0.440926 9.29711C0.244149 9.30034 0.109685 9.20664 0.0375334 9.03216C0.0145761 8.98047 0.00145761 8.91908 0.00145761 8.86092C0.00145761 7.18724 -0.00182201 5.51034 0.00145761 3.83667C0.00145761 3.52326 0.263827 3.3294 0.555713 3.40694C0.74921 3.45864 0.873836 3.63311 0.873836 3.87867C0.873836 4.47964 0.873836 5.07738 0.873836 5.67835C0.873836 5.74944 0.873836 5.82052 0.873836 5.90453H1.71998C1.71998 5.40695 1.71998 4.91906 1.71998 4.43118C1.71998 4.24055 1.71998 4.04992 1.71998 3.85605C1.72326 3.54264 1.8774 3.38755 2.20536 3.38432C2.63499 3.37786 3.06134 3.37786 3.49097 3.38432C3.62871 3.38432 3.7271 3.34555 3.82549 3.24862C4.2748 2.79628 4.73395 2.35363 5.18325 1.90128C5.32428 1.75912 5.47186 1.68803 5.67848 1.6945C6.06547 1.70742 6.45247 1.69773 6.8493 1.69773V0.870583C6.79027 0.870583 6.72795 0.86089 6.66236 0.86089C6.31472 0.86089 5.96708 0.86089 5.61944 0.86089C5.3374 0.857659 5.14062 0.676721 5.14062 0.431163C5.14062 0.185605 5.33412 0.00143601 5.61616 0.00143601C6.73451 0.00143601 7.84958 -0.00179502 8.96793 0.00143601C9.24014 0.00143601 9.42708 0.182374 9.43036 0.42147C9.43364 0.670259 9.2467 0.854428 8.96465 0.86089C8.55798 0.867352 8.15131 0.86089 7.73152 0.86089V1.69773C8.12835 1.69773 8.51534 1.69773 8.90234 1.69773C9.1975 1.69773 9.49267 1.70419 9.78456 1.69773C9.96822 1.69126 10.106 1.75588 10.2306 1.87866C10.6865 2.33424 11.1489 2.78335 11.6047 3.23893C11.7064 3.33909 11.8048 3.38755 11.9557 3.38432C12.3689 3.37463 12.7854 3.37786 13.1986 3.38432C13.5627 3.38755 13.7234 3.54587 13.7234 3.90775C13.7234 4.28901 13.7234 4.66704 13.7234 5.058H14.5695C14.5695 4.74459 14.5826 4.42795 14.5695 4.11454C14.5302 3.40371 14.7761 3.36817 15.3173 3.37786C15.7469 3.38755 16.1733 3.38432 16.6029 3.37786C16.8029 3.37786 16.9636 3.43602 17.1014 3.58142C17.331 3.82051 17.5704 4.05315 17.8098 4.28255C17.9377 4.40533 18 4.54426 18 4.72197C18 6.36333 18 8.00469 18 9.64606C18 9.82053 17.9442 9.9627 17.8131 10.0855C17.5605 10.3213 17.331 10.5831 17.0686 10.806C16.9538 10.9029 16.78 10.9805 16.6291 10.9869C16.1142 11.0096 15.5993 10.9966 15.0844 10.9934C14.7335 10.9934 14.5728 10.8318 14.5728 10.4829C14.5728 10.0952 14.5728 9.70745 14.5728 9.31003H13.7267C13.7267 9.69129 13.7267 10.0661 13.7267 10.4409C13.7267 10.8351 13.566 10.9966 13.1691 10.9966C10.6799 10.9966 8.19066 10.9966 5.70143 10.9966C5.49154 10.9966 5.33084 10.932 5.18325 10.7866C4.73067 10.331 4.26496 9.88192 3.80909 9.42635C3.71726 9.33588 3.62871 9.29387 3.49425 9.29711C3.05806 9.30357 2.62515 9.30034 2.18896 9.29711C1.88068 9.29711 1.71998 9.13879 1.7167 8.83507C1.7167 8.15655 1.7167 7.47804 1.7167 6.77367ZM2.5858 8.44735C2.98591 8.44735 3.36635 8.45058 3.74678 8.44735C3.94684 8.44411 4.10426 8.50874 4.24528 8.6509C4.69459 9.10324 5.15374 9.5459 5.60304 9.99824C5.69815 10.0952 5.79326 10.1372 5.93429 10.1372C8.16115 10.1339 10.3913 10.1372 12.6181 10.1372C12.6903 10.1372 12.7592 10.1372 12.8412 10.1372C12.8412 9.7333 12.8412 9.3585 12.8412 8.9837C12.8412 8.6089 12.9953 8.45381 13.3757 8.45381C13.8513 8.45381 14.3268 8.45381 14.8024 8.45381C15.2976 8.45381 15.4222 8.57336 15.4222 9.05801C15.4222 9.41342 15.4222 9.7656 15.4222 10.1404C15.5928 10.1404 15.7403 10.121 15.8814 10.1436C16.3471 10.2179 16.7045 10.0661 16.9899 9.69452C17.0784 9.57821 17.1375 9.47804 17.1375 9.32942C17.1309 8.05639 17.1079 6.78337 17.1473 5.51357C17.1637 5.02245 17.0489 4.64766 16.6455 4.36333C16.593 4.32455 16.5438 4.25024 16.4914 4.24701C16.1405 4.23731 15.7895 4.24055 15.4222 4.24055C15.4222 4.65735 15.4222 5.04507 15.4222 5.4328C15.4189 5.78175 15.2582 5.93361 14.9008 5.93684C14.399 5.93684 13.8972 5.93684 13.3954 5.93684C13.0084 5.93684 12.8444 5.77528 12.8444 5.40049C12.8444 5.01922 12.8444 4.64119 12.8444 4.24055C12.4378 4.24055 12.0508 4.23408 11.6638 4.24055C11.467 4.24701 11.3194 4.18239 11.1817 4.04668C10.7258 3.59111 10.2699 3.13553 9.80095 2.69288C9.72552 2.6218 9.59762 2.56364 9.49267 2.56364C8.30217 2.55395 7.11167 2.55395 5.92117 2.56364C5.81622 2.56364 5.68831 2.6218 5.61288 2.69611C5.18981 3.09676 4.76674 3.50387 4.36663 3.92714C4.15017 4.15654 3.9206 4.26963 3.59592 4.24701C3.26468 4.22116 2.93016 4.24055 2.5858 4.24055V8.45381V8.44735Z" fill="#0F172A"/>
</svg>
