<svg width="19" height="19" viewBox="0 0 19 19" fill="none" xmlns="http://www.w3.org/2000/svg">
<mask id="mask0_33474_1736" style="mask-type:alpha" maskUnits="userSpaceOnUse" x="0" y="0" width="19" height="19">
<rect x="0.5" y="0.5" width="18" height="18" fill="#D9D9D9" stroke="#64748B"/>
</mask>
<g mask="url(#mask0_33474_1736)">
<path d="M9.02051 10.7437C10.0451 10.7437 11.0692 10.8664 12.0918 11.1118C13.1143 11.3574 14.1355 11.7261 15.1553 12.2163H15.1562C15.6078 12.4379 15.9687 12.7504 16.2373 13.1528C16.5058 13.5557 16.6415 13.9904 16.6416 14.4556V16.3286H1.40039V14.4556C1.40047 13.9905 1.53535 13.5556 1.80371 13.1528C2.07234 12.7503 2.43409 12.4379 2.88574 12.2163H2.88672C3.90648 11.7261 4.92768 11.3574 5.9502 11.1118C6.97256 10.8665 7.99608 10.7437 9.02051 10.7437ZM9.02051 12.021C8.07231 12.021 7.13258 12.1342 6.20117 12.3608C5.26913 12.5876 4.36415 12.9141 3.48633 13.3403C3.22718 13.4793 3.02829 13.6474 2.88574 13.8423C2.74364 14.0364 2.67489 14.24 2.6748 14.4556V15.0522H15.3672V14.4556C15.3671 14.2401 15.2983 14.0364 15.1562 13.8423C15.0137 13.6474 14.8147 13.4792 14.5557 13.3403C13.6778 12.9141 12.7729 12.5876 11.8408 12.3608C10.9093 12.1342 9.96886 12.021 9.02051 12.021ZM9.02051 1.87939C9.9337 1.87939 10.7184 2.20653 11.3682 2.85791C12.0178 3.50923 12.3438 4.29539 12.3438 5.21045C12.3437 6.12547 12.0179 6.91171 11.3682 7.56299C10.7184 8.21428 9.93365 8.5415 9.02051 8.5415C8.10759 8.54143 7.32349 8.2141 6.67383 7.56299C6.02413 6.91171 5.69736 6.12547 5.69727 5.21045C5.69727 4.29531 6.02411 3.50926 6.67383 2.85791C7.32355 2.20661 8.10745 1.87947 9.02051 1.87939ZM9.02051 3.15576C8.45661 3.15584 7.97633 3.35625 7.57422 3.75928C7.17199 4.16249 6.97168 4.64474 6.97168 5.21045C6.97177 5.77598 7.17208 6.25753 7.57422 6.66064C7.97635 7.06373 8.45656 7.26408 9.02051 7.26416C9.58462 7.26416 10.0655 7.06385 10.4678 6.66064C10.8698 6.25755 11.0692 5.77593 11.0693 5.21045C11.0693 4.64475 10.87 4.16248 10.4678 3.75928C10.0655 3.35608 9.58462 3.15576 9.02051 3.15576Z" fill="#475569" stroke="#475569" stroke-width="0.2"/>
</g>
</svg>
