<svg width="16" height="16" viewBox="0 0 16 16" fill="none" xmlns="http://www.w3.org/2000/svg">
<path d="M8.00147 16C6.89495 16 5.85488 15.79 4.88126 15.3701C3.90765 14.9502 3.06077 14.3803 2.34063 13.6604C1.62049 12.9406 1.05032 12.094 0.630105 11.1208C0.210035 10.1476 0 9.10786 0 8.00147C0 6.89495 0.210035 5.85488 0.630105 4.88126C1.05003 3.90765 1.62 3.06077 2.34 2.34063C3.06 1.62049 3.90667 1.05032 4.88 0.630105C5.85333 0.210035 6.89333 0 8 0C8.88702 0 9.72632 0.133333 10.5179 0.4C11.3095 0.666667 12.0356 1.0386 12.6964 1.51579L11.7829 2.45032C11.2388 2.07558 10.6494 1.78407 10.0147 1.57579C9.38007 1.36737 8.70849 1.26316 8 1.26316C6.13333 1.26316 4.54386 1.9193 3.23158 3.23158C1.9193 4.54386 1.26316 6.13333 1.26316 8C1.26316 9.86667 1.9193 11.4561 3.23158 12.7684C4.54386 14.0807 6.13333 14.7368 8 14.7368C9.86667 14.7368 11.4561 14.0807 12.7684 12.7684C14.0807 11.4561 14.7368 9.86667 14.7368 8C14.7368 7.70414 14.7174 7.41158 14.6785 7.12232C14.6396 6.83305 14.5813 6.55179 14.5036 6.27853L15.5238 5.25032C15.6782 5.68316 15.7961 6.12849 15.8777 6.58632C15.9592 7.044 16 7.51523 16 8C16 9.10667 15.79 10.1467 15.3701 11.12C14.9502 12.0933 14.3803 12.94 13.6604 13.66C12.9406 14.38 12.094 14.95 11.1208 15.3699C10.1476 15.79 9.10786 16 8.00147 16ZM6.80484 11.5821L3.51747 8.29474L4.40484 7.40737L6.80484 9.80737L15.1126 1.48674L16 2.37411L6.80484 11.5821Z" fill="#475569"/>
</svg>
